HIERARCHY
ROOT Hips
{
 OFFSET 0.000000 0.000000 0.000000
 CHANNELS 6 Xposition Yposition Zposition Yrotation Xrotation Zrotation
 JOINT Chest
 {
  OFFSET 0.000000 9.585900 0.002600
  CHANNELS 3 Yrotation Xrotation Zrotation
  JOINT Chest2
  {
   OFFSET 0.000000 9.601200 -0.005300
   CHANNELS 3 Yrotation Xrotation Zrotation
   JOINT Chest3
   {
    OFFSET 0.000000 9.561800 0.000000
    CHANNELS 3 Yrotation Xrotation Zrotation
    JOINT Chest4
    {
     OFFSET 0.000000 9.552100 0.000000
     CHANNELS 3 Yrotation Xrotation Zrotation
     JOINT Neck
     {
      OFFSET 0.000000 14.453000 0.000000
      CHANNELS 3 Yrotation Xrotation Zrotation
      JOINT Head
      {
       OFFSET 0.000000 8.936500 -0.011300
       CHANNELS 3 Yrotation Xrotation Zrotation
       End Site
       {
        OFFSET 0.000000 17.073600 -0.006000
       }
      }
     }
     JOINT RightCollar
     {
      OFFSET -2.921100 9.558500 0.000000
      CHANNELS 3 Yrotation Xrotation Zrotation
      JOINT RightShoulder
      {
       OFFSET -13.519700 0.000000 0.000000
       CHANNELS 3 Yrotation Xrotation Zrotation
       JOINT RightElbow
       {
        OFFSET 0.000000 -29.696600 0.000000
        CHANNELS 3 Yrotation Xrotation Zrotation
        JOINT RightWrist
        {
         OFFSET 0.000000 -24.004700 0.000000
         CHANNELS 3 Yrotation Xrotation Zrotation
         End Site
         {
          OFFSET 0.000000 -17.728500 0.000000
         }
        }
       }
      }
     }
     JOINT LeftCollar
     {
      OFFSET 2.921100 9.558500 0.000000
      CHANNELS 3 Yrotation Xrotation Zrotation
      JOINT LeftShoulder
      {
       OFFSET 13.519700 0.000000 0.000000
       CHANNELS 3 Yrotation Xrotation Zrotation
       JOINT LeftElbow
       {
        OFFSET 0.000000 -29.696600 0.000000
        CHANNELS 3 Yrotation Xrotation Zrotation
        JOINT LeftWrist
        {
         OFFSET 0.000000 -24.004700 0.000000
         CHANNELS 3 Yrotation Xrotation Zrotation
         End Site
         {
          OFFSET 0.000000 -17.728500 0.000000
         }
        }
       }
      }
     }
    }
   }
  }
 }
 JOINT RightHip
 {
  OFFSET -7.771700 -0.012900 -0.001300
  CHANNELS 3 Yrotation Xrotation Zrotation
  JOINT RightKnee
  {
   OFFSET 0.000000 -40.869800 0.001200
   CHANNELS 3 Yrotation Xrotation Zrotation
   JOINT RightAnkle
   {
    OFFSET 0.000000 -39.717900 0.002100
    CHANNELS 3 Yrotation Xrotation Zrotation
    JOINT RightToe
    {
     OFFSET 0.000000 -4.965400 11.033500
     CHANNELS 3 Yrotation Xrotation Zrotation
     End Site
     {
      OFFSET 0.000000 -1.423100 5.872300
     }
    }
   }
  }
 }
 JOINT LeftHip
 {
  OFFSET 7.771700 -0.012900 -0.001300
  CHANNELS 3 Yrotation Xrotation Zrotation
  JOINT LeftKnee
  {
   OFFSET 0.000000 -40.869800 0.001200
   CHANNELS 3 Yrotation Xrotation Zrotation
   JOINT LeftAnkle
   {
    OFFSET 0.000000 -39.717900 0.002100
    CHANNELS 3 Yrotation Xrotation Zrotation
    JOINT LeftToe
    {
     OFFSET 0.000000 -4.965400 11.033500
     CHANNELS 3 Yrotation Xrotation Zrotation
     End Site
     {
      OFFSET 0.000000 -1.423100 5.872300
     }
    }
   }
  }
 }
}
MOTION
Frames: 15
Frame Time: 0.008333
-51.386056 50.550210 0.543551 162.468029 -8.530536 -0.558022 4.226228 7.957938 0.653419 0.199671 0.429476 -0.021677 0.342424 0.735023 -0.042814 3.494004 7.527344 -0.205239 2.406238 18.414172 0.210513 4.361859 -1.571528 -0.395592 2.611738 6.462468 0.725779 -6.902212 -13.558874 -7.904764 -50.809946 -65.000681 72.050834 -1.778554 4.231403 -23.462829 -5.706508 3.598263 0.073865 23.597603 -7.153510 0.545972 60.859905 -77.197707 -82.038375 -1.953348 10.586895 8.667413 -7.640582 -71.686008 1.326502 -118.995296 81.200046 -116.236588 0.587587 -15.829036 -1.971775 -0.247109 0.920441 -0.126339 -7.494521 -75.738538 26.126087 114.610471 78.731643 111.639058 -15.988185 -22.207989 -0.129307 -0.485647 -1.092481 -0.228807
-51.387342 50.551169 0.544273 162.469695 -8.539867 -0.552437 4.223425 7.966394 0.647396 0.198343 0.425706 -0.023902 0.341782 0.734443 -0.040762 3.495270 7.524611 -0.204709 2.403409 18.422437 0.214891 4.355508 -1.564553 -0.392163 2.614560 6.466335 0.725345 -6.906285 -13.578170 -7.914685 -50.801179 -64.987731 72.037100 -1.770337 4.238970 -23.472417 -5.693247 3.600045 0.077005 23.591040 -7.140703 0.551395 60.890556 -77.199268 -82.071346 -1.951291 10.588783 8.666770 -7.664468 -71.677641 1.332161 -119.025432 81.212463 -116.268905 0.599912 -15.824874 -1.978019 -0.256422 0.917834 -0.131349 -7.471411 -75.731275 26.100358 114.630305 78.734921 111.656477 -15.994083 -22.197009 -0.117104 -0.489784 -1.105042 -0.232668
-51.386628 50.551979 0.546348 162.475954 -8.545072 -0.561287 4.214488 7.964371 0.655646 0.198344 0.425947 -0.023817 0.343953 0.737454 -0.042332 3.497336 7.527836 -0.202210 2.399166 18.425175 0.218129 4.340397 -1.556032 -0.378710 2.623116 6.446476 0.718345 -6.914862 -13.562838 -7.913080 -50.819931 -64.996047 72.043850 -1.768479 4.250801 -23.477936 -5.684334 3.600041 0.076716 23.585408 -7.134774 0.560149 60.907153 -77.211725 -82.080010 -1.935614 10.595030 8.664615 -7.709834 -71.670363 1.367650 -119.021329 81.217918 -116.263632 0.607647 -15.818537 -1.981929 -0.262786 0.914021 -0.133712 -7.506758 -75.725697 26.128251 114.627871 78.736127 111.652438 -15.983220 -22.198092 -0.105962 -0.481184 -1.102917 -0.237059
-51.385524 50.552885 0.547449 162.468212 -8.556610 -0.568962 4.221766 7.969004 0.662620 0.198698 0.426308 -0.023623 0.344733 0.743286 -0.040874 3.501458 7.532517 -0.199981 2.393584 18.426265 0.221462 4.336336 -1.558030 -0.377230 2.622051 6.437847 0.716173 -6.913780 -13.563094 -7.915232 -50.848501 -65.022459 72.064051 -1.790139 4.272160 -23.481133 -5.672945 3.592332 0.081067 23.579474 -7.126408 0.560497 60.916266 -77.214850 -82.095188 -1.936196 10.598933 8.681468 -7.743826 -71.656897 1.402899 -119.033534 81.231425 -116.269880 0.605428 -15.811632 -1.994151 -0.263336 0.910284 -0.133695 -7.527044 -75.713285 26.155595 114.671007 78.747438 111.699588 -15.972545 -22.209065 -0.101316 -0.454069 -1.097298 -0.238236
-51.386860 50.553517 0.549135 162.468819 -8.559972 -0.565768 4.218443 7.973523 0.657682 0.199667 0.426801 -0.023048 0.345916 0.742557 -0.040105 3.505573 7.536564 -0.197973 2.388735 18.425084 0.222086 4.323389 -1.554311 -0.367435 2.619027 6.430439 0.713240 -6.900947 -13.581748 -7.929359 -50.856573 -65.019453 72.058259 -1.792131 4.284099 -23.487337 -5.671213 3.579114 0.081301 23.582541 -7.117225 0.569608 60.919328 -77.213113 -82.104523 -1.929303 10.603188 8.694885 -7.751876 -71.653569 1.402296 -119.033220 81.238137 -116.264564 0.604316 -15.810488 -2.005704 -0.258340 0.912881 -0.129488 -7.492828 -75.710646 26.115726 114.659429 78.745441 111.693925 -15.970137 -22.221525 -0.092850 -0.461271 -1.089149 -0.242590
-51.388254 50.554080 0.550580 162.467341 -8.564295 -0.562343 4.218207 7.978108 0.654118 0.197993 0.427528 -0.023814 0.351341 0.743264 -0.038930 3.502727 7.538467 -0.196252 2.389099 18.424535 0.222589 4.293601 -1.542697 -0.340718 2.622290 6.416890 0.708040 -6.896200 -13.581742 -7.934278 -50.871862 -65.023188 72.067578 -1.793167 4.292579 -23.499592 -5.659947 3.567924 0.079820 23.582068 -7.110771 0.577645 60.908219 -77.210517 -82.092628 -1.923683 10.610475 8.705839 -7.769960 -71.648619 1.411871 -119.011148 81.241450 -116.244323 0.616382 -15.813555 -2.009036 -0.264603 0.918879 -0.132776 -7.471726 -75.707682 26.094163 114.666520 78.745950 111.703107 -15.970632 -22.227555 -0.090022 -0.494775 -1.096422 -0.234757
-51.389183 50.554772 0.550586 162.445376 -8.577606 -0.556597 4.236648 7.991308 0.651291 0.199638 0.427603 -0.023332 0.346984 0.743736 -0.039802 3.506103 7.542158 -0.193970 2.384202 18.423982 0.226710 4.287456 -1.538234 -0.335667 2.633203 6.407355 0.704008 -6.900424 -13.581373 -7.934817 -50.886336 -65.030219 72.082929 -1.797440 4.290897 -23.514986 -5.639985 3.557731 0.077642 23.591035 -7.095705 0.591680 60.953089 -77.203319 -82.135601 -1.928790 10.611371 8.678626 -7.775241 -71.634663 1.427347 -118.977802 81.247630 -116.214483 0.628142 -15.814340 -2.014380 -0.271158 0.924538 -0.135518 -7.428381 -75.694294 26.071745 114.747260 78.768357 111.791923 -15.970367 -22.243839 -0.078453 -0.453855 -1.098415 -0.232202
-51.386904 50.555277 0.552165 162.434955 -8.587294 -0.573946 4.243047 7.998539 0.668120 0.200002 0.428179 -0.023304 0.345057 0.744121 -0.039525 3.513697 7.545324 -0.191625 2.379048 18.427113 0.229648 4.283797 -1.537955 -0.332696 2.640731 6.400315 0.700207 -6.903258 -13.582320 -7.933854 -50.890274 -65.031422 72.085214 -1.792093 4.290617 -23.527855 -5.636560 3.553843 0.076894 23.604969 -7.092236 0.594009 60.963911 -77.200682 -82.159134 -1.926920 10.616137 8.683583 -7.848560 -71.622118 1.507110 -118.958606 81.251151 -116.194349 0.633470 -15.804193 -2.018738 -0.276677 0.916133 -0.136643 -7.493725 -75.681004 26.141650 114.767022 78.768176 111.809867 -15.918948 -22.265773 -0.064236 -0.461869 -1.089948 -0.249225
-51.387320 50.555457 0.553628 162.435119 -8.592209 -0.576978 4.237658 7.997585 0.670356 0.202630 0.432977 -0.022842 0.346170 0.741875 -0.039972 3.516005 7.548902 -0.191063 2.372351 18.434905 0.235394 4.286939 -1.543537 -0.338099 2.642307 6.398568 0.699308 -6.895433 -13.591075 -7.942057 -50.899257 -65.024544 72.086198 -1.781880 4.289153 -23.525586 -5.624972 3.551701 0.079108 23.611396 -7.091495 0.590862 60.954053 -77.197968 -82.154452 -1.924859 10.617066 8.688187 -7.878264 -71.617619 1.532246 -118.952459 81.253786 -116.186684 0.632481 -15.800140 -2.027438 -0.273034 0.913509 -0.134167 -7.523258 -75.676247 26.160782 114.772035 78.760276 111.811761 -15.887207 -22.267677 -0.056372 -0.456901 -1.096533 -0.257285
-51.388003 50.555476 0.554690 162.432372 -8.598452 -0.576321 4.239373 8.001160 0.670122 0.201128 0.432730 -0.022796 0.347323 0.739067 -0.040259 3.517806 7.554193 -0.190420 2.371451 18.435960 0.236064 4.277101 -1.533800 -0.329813 2.648386 6.391698 0.699687 -6.879685 -13.597673 -7.950528 -50.910959 -65.031521 72.086277 -1.788308 4.296203 -23.533653 -5.620761 3.546298 0.082368 23.625647 -7.090284 0.586070 60.938363 -77.190867 -82.140459 -1.928462 10.619248 8.696772 -7.879803 -71.611807 1.534268 -118.940999 81.255118 -116.170566 0.626625 -15.799194 -2.029887 -0.265825 0.914276 -0.135079 -7.551138 -75.670261 26.178255 114.808277 78.765342 111.849094 -15.861668 -22.263494 -0.051922 -0.445480 -1.105849 -0.268241
-51.387862 50.555163 0.556994 162.425757 -8.598389 -0.580294 4.245906 7.996929 0.674527 0.198173 0.423651 -0.023116 0.349163 0.746269 -0.039662 3.522956 7.551598 -0.190909 2.365909 18.441721 0.238729 4.266021 -1.523418 -0.323198 2.647952 6.394586 0.699919 -6.863564 -13.610037 -7.953907 -50.901311 -65.025950 72.063394 -1.786570 4.299015 -23.534443 -5.618293 3.551518 0.090803 23.629898 -7.087724 0.578276 60.916930 -77.188697 -82.109465 -1.920248 10.605518 8.718440 -7.909831 -71.612052 1.562495 -118.913569 81.254744 -116.132869 0.626035 -15.792869 -2.043292 -0.254593 0.911103 -0.132006 -7.599240 -75.669146 26.226130 114.826658 78.767365 111.867032 -15.855622 -22.258534 -0.048603 -0.469942 -1.118519 -0.269454
-51.387704 50.554736 0.558782 162.424288 -8.600387 -0.581885 4.244745 7.993089 0.676411 0.198038 0.425115 -0.023432 0.349602 0.746601 -0.039760 3.526714 7.550350 -0.191462 2.354194 18.447082 0.244323 4.258218 -1.515998 -0.316791 2.651069 6.397185 0.700562 -6.864953 -13.612541 -7.952801 -50.902089 -65.028963 72.069684 -1.781026 4.293753 -23.531266 -5.610410 3.548419 0.094852 23.630510 -7.082062 0.577841 60.901831 -77.189187 -82.081875 -1.919588 10.599918 8.722066 -7.931650 -71.609920 1.574064 -118.931875 81.266249 -116.148005 0.641588 -15.789458 -2.045058 -0.269280 0.910963 -0.139574 -7.630418 -75.666657 26.253111 114.814164 78.761099 111.853914 -15.851316 -22.249384 -0.051223 -0.469074 -1.132698 -0.253107
-51.386099 50.554247 0.560619 162.423005 -8.603746 -0.589125 4.244493 7.991296 0.683735 0.198077 0.426732 -0.022669 0.350244 0.747093 -0.039732 3.531854 7.549545 -0.191765 2.348188 18.451955 0.247623 4.244737 -1.510710 -0.310820 2.655974 6.396922 0.701276 -6.866636 -13.619634 -7.955942 -50.898896 -65.024405 72.072210 -1.775132 4.288287 -23.522120 -5.589613 3.536803 0.104397 23.638400 -7.073348 0.575876 60.888271 -77.195758 -82.065818 -1.912428 10.604336 8.714290 -7.993730 -71.601640 1.625512 -118.939886 81.280834 -116.158739 0.657142 -15.795144 -2.050514 -0.284412 0.918034 -0.145612 -7.683878 -75.663319 26.300382 114.792971 78.758277 111.845420 -15.863475 -22.236676 -0.065885 -0.432775 -1.143532 -0.243335
-51.386149 50.553648 0.561818 162.427020 -8.606642 -0.583820 4.237022 7.988910 0.680087 0.201953 0.429869 -0.023319 0.348508 0.748756 -0.040694 3.539769 7.549100 -0.189635 2.339571 18.454392 0.247812 4.231001 -1.505494 -0.303531 2.658886 6.393790 0.700039 -6.869206 -13.631209 -7.956652 -50.885420 -65.018210 72.062572 -1.773094 4.287538 -23.510759 -5.585835 3.530807 0.104887 23.651770 -7.070930 0.577407 60.868738 -77.196585 -82.057630 -1.909412 10.607728 8.707719 -7.986195 -71.599013 1.610943 -118.944080 81.283958 -116.159787 0.657126 -15.800168 -2.053713 -0.284048 0.923551 -0.144261 -7.691626 -75.662999 26.297057 114.797189 78.755194 111.852250 -15.870865 -22.218596 -0.064246 -0.415870 -1.160082 -0.243135
-51.385389 50.552991 0.563307 162.432233 -8.608361 -0.581438 4.233402 7.989413 0.678352 0.204284 0.428944 -0.023240 0.345020 0.750014 -0.040191 3.546934 7.548216 -0.189639 2.331784 18.456993 0.250535 4.200280 -1.498621 -0.286036 2.661037 6.390840 0.699633 -6.873739 -13.634087 -7.955195 -50.879800 -65.019912 72.064105 -1.774569 4.287599 -23.495211 -5.587490 3.529502 0.105706 23.667079 -7.070668 0.578422 60.844780 -77.194029 -82.050670 -1.909713 10.604063 8.726020 -8.014794 -71.596849 1.628659 -118.941150 81.288373 -116.160390 0.662410 -15.805391 -2.058827 -0.286882 0.929018 -0.143951 -7.700658 -75.663220 26.296445 114.794660 78.753681 111.852854 -15.872248 -22.207844 -0.066777 -0.483889 -1.165753 -0.245847
